<svg width="63" height="54" viewBox="0 0 63 54" fill="none" xmlns="http://www.w3.org/2000/svg">
<path fill-rule="evenodd" clip-rule="evenodd" d="M1.27455 46.6132C1.52366 46.3664 3.06766 44.7456 5.33666 42.3573C5.99732 43.5224 6.81455 44.6238 7.78836 45.6315C5.57712 47.6579 4.10474 49.012 3.90045 49.2143C2.9147 50.1908 1.27455 51.195 0.412421 50.341C-0.449709 49.487 0.137147 47.7399 1.27455 46.6132Z" fill="white"/>
<path d="M35.9752 19.6956C35.6241 18.4938 35.1476 17.7507 34.2592 16.8414C33.3708 15.9321 32.4394 15.189 31.4256 15.0387C31.2124 15.2022 29.4062 17.0665 26.7737 19.8156C29.1158 20.3008 31.8264 23.594 31.8264 23.594L35.9752 19.6956Z" fill="white"/>
<path d="M37.5134 18.6148C37.9008 18.6365 40.7115 19.3534 42.8974 17.188C44.81 15.2932 44.8975 12.5865 45.0833 10.2857C45.3565 6.90226 48.6353 5.41353 50.6845 5.41353C52.4364 5.41353 55.7393 6.90226 55.9258 11.0466C55.9258 16.5113 52.5971 20.5893 47.8156 23.594C43.034 26.5986 35.9752 26.1203 31.8264 23.594C36.6131 29.3684 37.8186 37.8947 32.378 44.2556C26.9374 50.6165 16.6671 52.5113 9.38656 47.1386C15.1377 52.233 24.2709 54 32.2654 54C47.8156 54 62.5665 39.3835 62.9799 23.9549C63.2954 12.1846 59.9744 1.21805 47.1222 0.066898C44.1312 -0.293587 30.8613 0.338358 32.2654 14.0147C32.9155 14.1923 34.4661 14.8978 35.4255 15.7633C36.1708 16.47 37.128 17.9587 37.5134 18.6148Z" fill="white"/>
<path d="M29.9749 42.3732C33.8155 37.4833 32.8048 29.1548 28.2961 24.6886C23.7874 20.2225 15.7672 20.0301 11.593 24.1649L29.9749 42.3732Z" fill="white"/>
<path d="M27.6562 44.67C22.5173 48.6303 15.5398 48.7218 10.3619 43.5928C5.18396 38.4637 5.69176 30.0105 9.2744 26.4616L27.6562 44.67Z" fill="white"/>
</svg>
